<svg width="396" height="173.38378378378377" viewBox="0 0 370 162" class="looka-1j8o68f"><defs id="SvgjsDefs1015"></defs><g id="SvgjsG1016" featurekey="rootContainer" transform="matrix(1,0,0,1,0,0)" fill="#ffffff"><rect y="0" height="1" width="1" opacity="0"></rect><rect y="157" width="370" height="5"></rect></g><g id="SvgjsG1017" featurekey="symbolFeature-0" transform="matrix(0.5358743168204623,0,0,0.5358743168204623,-4.753207684119415,43.57425824448592)" fill="#ffffff"><path xmlns="http://www.w3.org/2000/svg" fill="#ffffff" d="M65.18 41.18c.25 0 .16.01.27-.08q3.27-2.74 6.81-2.81 12.54-.27 28.49-.06 7.23.09 9.3 7.17l3.01 11.29a.7.7 0 0 0 .69.52c5.67-.11 7.74 1.26 7.73 7.34q-.05 19.53-.08 20.71-.18 7.11-7.38 6.12a.42.42 0 0 0-.46.52l2.15 8.67a2.26 2.25 77.6 0 1-1.76 2.76l-.09.01a2.26 2.25 75.3 0 1-2.72-1.6l-2.64-9.9a.51.51 0 0 0-.51-.38q-.83.02-42.83 0-41.99-.02-42.82-.04a.51.51 0 0 0-.51.38l-2.65 9.9a2.26 2.25-75.3 0 1-2.72 1.6l-.09-.01a2.26 2.25-77.6 0 1-1.76-2.76l2.16-8.67a.42.42 0 0 0-.46-.52q-7.2.98-7.38-6.13-.03-1.18-.06-20.71c0-6.08 2.07-7.44 7.74-7.33a.7.7 0 0 0 .69-.52l3.02-11.29q2.07-7.08 9.3-7.16 15.95-.2 28.49.08 3.54.08 6.81 2.82c.11.09.02.08.26.08m37.91 22.67a.59.59 0 0 0 .76-.33q.06-.17 0-1.28c-.12-2.59 1.61-4.51 4.07-5a.59.59 0 0 0 .45-.75l-2.94-10.56a4.08 4.07 4 0 0-2.3-2.64q-.89-.38-4.16-.39-22.58-.04-26.37.15c-2.94.15-4.63 1.7-4.61 4.87q.07 7.75.03 15.4a.6.59 83.8 0 0 .73.58c6.98-1.65 14.99-1.09 27.29-1.02q4.65.03 7.05.97m-75.43.08q2.41-.94 7.07-.98c12.34-.1 20.38-.67 27.38.97a.6.6 0 0 0 .73-.59q-.05-7.67 0-15.45c.02-3.18-1.68-4.73-4.63-4.87q-3.8-.19-26.46-.1-3.28.01-4.17.4a4.09 4.09 0 0 0-2.3 2.65l-2.93 10.6a.6.59-76.1 0 0 .45.75c2.47.49 4.21 2.41 4.09 5.01q-.05 1.11.01 1.28a.59.59 0 0 0 .76.33M65.1 86.78q22.02 0 50.67-.05a.94.94 0 0 0 .94-.94V62.71a.88.88 0 0 0-.88-.88h-6.76a.85.84 89.7 0 0-.84.86q.06 2.94-.05 13.26-.06 4.75-4.29 6.1a2.54 2.52-54 0 1-.8.13q-15.62.05-33.84 0-2.06-.01-3.85-1.34-.12-.09-.3-.09t-.3.09q-1.79 1.33-3.85 1.34-18.22.04-33.84-.01a2.54 2.52 54 0 1-.8-.13q-4.23-1.36-4.29-6.11-.1-10.32-.04-13.26a.85.84-89.6 0 0-.84-.86h-6.76a.88.88 0 0 0-.88.88l-.01 23.08a.94.94 0 0 0 .93.94q28.66.06 50.68.07m-36.87-9.36 33.08-.06a1.72 1.72 0 0 0 1.72-1.72l-.01-4.99a6.8 3.35-.1 0 0-6.81-3.34l-22.92.04a6.8 3.35-.1 0 0-6.79 3.36l.01 4.99a1.72 1.72 0 0 0 1.72 1.72m41.41.02 32.6-.12a1.58 1.58 0 0 0 1.57-1.58l-.02-5.58a6.98 2.9-.2 0 0-6.99-2.88l-21.8.08a6.98 2.9-.2 0 0-6.97 2.92l.02 5.58a1.58 1.58 0 0 0 1.59 1.58"></path></g><g id="SvgjsG1018" featurekey="nameFeature-0" transform="matrix(1.0672628826734354,0,0,1.0672628826734354,79.65847620324729,5.534372258135091)" fill="#ffffff"><path d="M0.32 16 l0 -4 l13.6 0 l0 4 l-4.6 0 l0 24 l-4.4 0 l0 -24 l-4.6 0 z M22.945 28 l0 12 l-4.4 0 l0 -28 l4.4 0 l0 12 l5 0 l0 -12 l4.48 0 l0 28 l-4.48 0 l0 -12 l-5 0 z M42.730000000000004 16 l0 7.8 l6.04 0 l0 4 l-6.04 0 l0 8.2 l7.6 0 l0 4 l-12 0 l0 -28 l12 0 l0 4 l-7.6 0 z M74.42 12 l4.48 28 l-4.44 0 l-0.76 -5.08 l-5.4 0 l-0.76 5.08 l-4.04 0 l4.48 -28 l6.44 0 z M70.94 16.96 l-2.08 14.16 l4.24 0 l-2.08 -14.16 l-0.08 0 z M97.325 40 l-4.48 0 c-0.24 -0.72 -0.4 -1.16 -0.4 -3.44 l0 -4.4 c0 -2.6 -0.88 -3.56 -2.88 -3.56 l-1.52 0 l0 11.4 l-4.4 0 l0 -28 l6.64 0 c4.56 0 6.52 2.12 6.52 6.44 l0 2.2 c0 2.88 -0.92 4.72 -2.88 5.64 l0 0.08 c2.2 0.92 2.92 3 2.92 5.92 l0 4.32 c0 1.36 0.04 2.36 0.48 3.4 z M90.165 16 l-2.12 0 l0 8.6 l1.72 0 c1.64 0 2.64 -0.72 2.64 -2.96 l0 -2.76 c0 -2 -0.68 -2.88 -2.24 -2.88 z M101.15 16 l0 -4 l13.6 0 l0 4 l-4.6 0 l0 24 l-4.4 0 l0 -24 l-4.6 0 z M118.81500000000001 18.72 c0 -4.48 2.2 -7.04 6.48 -7.04 s6.48 2.56 6.48 7.04 l0 0.88 l-4.16 0 l0 -1.16 c0 -2 -0.8 -2.76 -2.2 -2.76 s-2.2 0.76 -2.2 2.76 c0 2.04 0.88 3.56 3.76 6.08 c3.68 3.24 4.84 5.56 4.84 8.76 c0 4.48 -2.24 7.04 -6.56 7.04 s-6.56 -2.56 -6.56 -7.04 l0 -1.72 l4.16 0 l0 2 c0 2 0.88 2.72 2.28 2.72 s2.28 -0.72 2.28 -2.72 c0 -2.04 -0.88 -3.56 -3.76 -6.08 c-3.68 -3.24 -4.84 -5.56 -4.84 -8.76 z M145.945 40 l0 -28 l4.4 0 l0 28 l-4.4 0 z M165.65 40 l-5.4 -20.28 l-0.08 0 l0 20.28 l-3.96 0 l0 -28 l5.52 0 l4.44 16.76 l0.08 0 l0 -16.76 l3.92 0 l0 28 l-4.52 0 z M174.755 16 l0 -4 l13.6 0 l0 4 l-4.6 0 l0 24 l-4.4 0 l0 -24 l-4.6 0 z M197.38 16 l0 7.8 l6.04 0 l0 4 l-6.04 0 l0 8.2 l7.6 0 l0 4 l-12 0 l0 -28 l12 0 l0 4 l-7.6 0 z M224.085 40 l-4.48 0 c-0.24 -0.72 -0.4 -1.16 -0.4 -3.44 l0 -4.4 c0 -2.6 -0.88 -3.56 -2.88 -3.56 l-1.52 0 l0 11.4 l-4.4 0 l0 -28 l6.64 0 c4.56 0 6.52 2.12 6.52 6.44 l0 2.2 c0 2.88 -0.92 4.72 -2.88 5.64 l0 0.08 c2.2 0.92 2.92 3 2.92 5.92 l0 4.32 c0 1.36 0.04 2.36 0.48 3.4 z M216.925 16 l-2.12 0 l0 8.6 l1.72 0 c1.64 0 2.64 -0.72 2.64 -2.96 l0 -2.76 c0 -2 -0.68 -2.88 -2.24 -2.88 z M229.19 40 l0 -28 l4.4 0 l0 28 l-4.4 0 z M243.535 18.44 l0 15.12 c0 2 0.88 2.76 2.28 2.76 s2.28 -0.76 2.28 -2.76 l0 -15.12 c0 -2 -0.88 -2.76 -2.28 -2.76 s-2.28 0.76 -2.28 2.76 z M239.13500000000002 33.28 l0 -14.56 c0 -4.48 2.36 -7.04 6.68 -7.04 s6.68 2.56 6.68 7.04 l0 14.56 c0 4.48 -2.36 7.04 -6.68 7.04 s-6.68 -2.56 -6.68 -7.04 z M271.71999999999997 40 l-4.48 0 c-0.24 -0.72 -0.4 -1.16 -0.4 -3.44 l0 -4.4 c0 -2.6 -0.88 -3.56 -2.88 -3.56 l-1.52 0 l0 11.4 l-4.4 0 l0 -28 l6.64 0 c4.56 0 6.52 2.12 6.52 6.44 l0 2.2 c0 2.88 -0.92 4.72 -2.88 5.64 l0 0.08 c2.2 0.92 2.92 3 2.92 5.92 l0 4.32 c0 1.36 0.04 2.36 0.48 3.4 z M264.56 16 l-2.12 0 l0 8.6 l1.72 0 c1.64 0 2.64 -0.72 2.64 -2.96 l0 -2.76 c0 -2 -0.68 -2.88 -2.24 -2.88 z"></path></g><g id="SvgjsG1019" featurekey="nameFeature-1" transform="matrix(3.0095606436468176,0,0,3.0095606436468176,77.23120110809299,23.848339374182217)" fill="#ffffff"><path d="M1.04 18.72 c0 -4.48 2.2 -7.04 6.48 -7.04 s6.48 2.56 6.48 7.04 l0 0.88 l-4.16 0 l0 -1.16 c0 -2 -0.8 -2.76 -2.2 -2.76 s-2.2 0.76 -2.2 2.76 c0 2.04 0.88 3.56 3.76 6.08 c3.68 3.24 4.84 5.56 4.84 8.76 c0 4.48 -2.24 7.04 -6.56 7.04 s-6.56 -2.56 -6.56 -7.04 l0 -1.72 l4.16 0 l0 2 c0 2 0.88 2.72 2.28 2.72 s2.28 -0.72 2.28 -2.72 c0 -2.04 -0.88 -3.56 -3.76 -6.08 c-3.68 -3.24 -4.84 -5.56 -4.84 -8.76 z M17.985 16 l0 -4 l13.6 0 l0 4 l-4.6 0 l0 24 l-4.4 0 l0 -24 l-4.6 0 z M36.01 12 l4.4 0 l0 21.6 c0 2 0.88 2.72 2.28 2.72 s2.28 -0.72 2.28 -2.72 l0 -21.6 l4.16 0 l0 21.32 c0 4.48 -2.24 7.04 -6.56 7.04 s-6.56 -2.56 -6.56 -7.04 l0 -21.32 z M54.835 40 l0 -28 l6.96 0 c4.4 0 6.56 2.44 6.56 6.92 l0 14.16 c0 4.48 -2.16 6.92 -6.56 6.92 l-6.96 0 z M61.715 16 l-2.48 0 l0 20 l2.48 0 c1.4 0 2.24 -0.72 2.24 -2.72 l0 -14.56 c0 -2 -0.84 -2.72 -2.24 -2.72 z M73.85999999999999 40 l0 -28 l4.4 0 l0 28 l-4.4 0 z M88.205 18.44 l0 15.12 c0 2 0.88 2.76 2.28 2.76 s2.28 -0.76 2.28 -2.76 l0 -15.12 c0 -2 -0.88 -2.76 -2.28 -2.76 s-2.28 0.76 -2.28 2.76 z M83.80499999999999 33.28 l0 -14.56 c0 -4.48 2.36 -7.04 6.68 -7.04 s6.68 2.56 6.68 7.04 l0 14.56 c0 4.48 -2.36 7.04 -6.68 7.04 s-6.68 -2.56 -6.68 -7.04 z"></path></g></svg>